Coordinates
version=1
nRows=34
nColumns=19
inDegrees=yes

Units are S.I. units (second, meters, Newtons, ...)
If the header above contains a line with 'inDegrees', this indicates whether rotational values are in degrees (yes) or radians (no).

endheader
time	pelvis_tilt	pelvis_list	pelvis_rotation	pelvis_tx	pelvis_ty	pelvis_tz	hip_flexion_r	hip_adduction_r	hip_rotation_r	knee_angle_r	knee_angle_r_beta	ankle_angle_r	hip_flexion_l	hip_adduction_l	hip_rotation_l	knee_angle_l	knee_angle_l_beta	ankle_angle_l
     11.47333333	      2.42912005	     -8.26102776	     -9.97110689	      2.35378623	      0.96116163	      1.08644028	     16.93652399	     15.36679578	      5.34609732	     15.49908701	      0.27051010	      5.95397134	    -19.49341176	    -11.40784820	    -23.71964193	     77.72845178	      1.35661741	    -12.71456712
     11.48000000	      2.86088221	     -9.11199893	    -10.62398195	      2.35206641	      0.95633563	      1.08791687	     16.33440906	     16.17213264	      4.61043008	     17.50463091	      0.30551344	      5.69344244	    -18.83602877	    -12.43686205	    -23.88344644	     81.71422051	      1.42618219	    -11.59841283
     11.48666667	      2.82363541	     -9.79838073	    -11.27207176	      2.35005345	      0.95083669	      1.08918057	     16.47515402	     16.82128233	      3.77088806	     20.10729102	      0.35093843	      5.62390307	    -17.44998962	    -13.33361598	    -23.71263368	     85.73452368	      1.49634972	    -10.42007662
     11.49333333	      2.86908110	    -10.47807182	    -11.95384017	      2.34767371	      0.94526000	      1.09020362	     16.65393433	     17.41158212	      3.02526217	     23.11638413	      0.40345701	      5.90135198	    -16.07854273	    -14.19002963	    -23.51390262	     89.64364797	      1.56457681	     -9.25055018
     11.50000000	      2.97554134	    -11.17531630	    -12.60573716	      2.34511357	      0.93972297	      1.09091111	     16.78408346	     17.96977376	      2.43738713	     26.31729119	      0.45932338	      6.52777814	    -14.67835273	    -15.03701416	    -23.20613502	     93.42070517	      1.63049889	     -8.05839333
     11.50666667	      3.60309479	    -12.09886805	    -13.16940179	      2.34241689	      0.93487512	      1.09122347	     16.19693879	     18.62262540	      2.09860621	     29.40221649	      0.51316549	      7.52001123	    -13.86717000	    -16.03188151	    -22.94910219	     96.93693328	      1.69186865	     -7.02864009
     11.51333333	      2.93187729	    -12.29673592	    -13.74886744	      2.33939723	      0.92907340	      1.09132706	     17.21371708	     18.76952386	      1.78761393	     32.68945224	      0.57053857	      8.72292698	    -11.04659435	    -16.48254831	    -21.97676910	    100.53112149	      1.75459907	     -6.02894983
     11.52000000	      2.84712200	    -12.73364518	    -14.14928304	      2.33633769	      0.92437058	      1.09097511	     17.30596918	     19.01299516	      1.69153624	     35.53645422	      0.62022813	     10.21500559	     -8.83315946	    -17.08384969	    -20.98212532	    103.78904141	      1.81146050	     -5.25170062
     11.52666667	      2.70061187	    -13.08854851	    -14.43246815	      2.33320389	      0.92026449	      1.09028033	     17.26681098	     19.16674461	      1.73524312	     38.00142942	      0.66325006	     11.89184921	     -6.32529081	    -17.60629359	    -19.74554110	    106.79580820	      1.86393848	     -4.68497653
     11.53333333	      3.00236890	    -13.58789690	    -14.57075689	      2.33011675	      0.91737901	      1.08920774	     16.40211187	     19.35954777	      2.01702812	     39.90214960	      0.69642389	     13.74116878	     -4.25981066	    -18.18983633	    -18.49606436	    109.41095245	      1.90958136	     -4.22135406
     11.54000000	      2.61043087	    -13.68788565	    -14.42176272	      2.32708871	      0.91457524	      1.08766453	     16.21031489	     19.17406650	      1.98171669	     41.41848251	      0.72288889	     15.51966641	     -0.89322486	    -18.41167304	    -16.54316881	    111.85189656	      1.95218387	     -4.06481748
     11.54666667	      1.95940273	    -13.60539665	    -14.30319127	      2.32410601	      0.91229646	      1.08603431	     16.09145246	     18.86375194	      2.08511315	     42.54005832	      0.74246408	     17.22598635	      2.90385248	    -18.43618099	    -14.56026787	    113.91798106	      1.98824385	     -4.11033174
     11.55333333	      1.96570091	    -13.67469067	    -13.89665194	      2.32155364	      0.91149076	      1.08399357	     14.88545537	     18.51731179	      2.25340548	     42.99377645	      0.75038296	     18.90974588	      5.96084766	    -18.40432377	    -12.57981823	    115.45848498	      2.01513071	     -4.17572014
     11.56000000	      1.72939364	    -13.51291493	    -13.39937969	      2.31928731	      0.91111537	      1.08188069	     13.76679723	     17.97221362	      2.41361601	     43.05317461	      0.75141965	     20.39711879	      9.40097590	    -18.07525034	    -10.52446335	    116.60930850	      2.03521637	     -4.31628420
     11.56666667	      1.13126928	    -13.11345289	    -12.95013237	      2.31732911	      0.91096539	      1.07989887	     12.89273211	     17.28640227	      2.62406129	     42.81908805	      0.74733407	     21.64304733	     13.22598203	    -17.48223770	     -8.58299408	    117.34321909	      2.04802553	     -4.47181836
     11.57333333	      1.25849638	    -12.75660866	    -12.57175656	      2.31605143	      0.91237739	      1.07818289	     10.85927449	     16.60689410	      3.38071780	     42.03218782	      0.73360007	     22.63082474	     15.85506855	    -16.84685246	     -7.23124748	    117.42571204	      2.04946530	     -4.42976005
     11.58000000	      1.25028680	    -12.30230647	    -11.48163033	      2.31511643	      0.91384493	      1.07591210	      8.98230037	     15.63842234	      3.04159203	     40.97215998	      0.71509909	     23.29658983	     18.91257553	    -15.80610185	     -5.18481461	    117.27902021	      2.04690505	     -4.49281650
     11.58666667	      1.02156655	    -11.61657638	    -11.29668391	      2.31478221	      0.91592617	      1.07497542	      7.07031053	     14.76440585	      3.92077626	     39.68833566	      0.69269213	     23.41190178	     21.50108535	    -14.96124632	     -4.42038658	    116.52809915	      2.03379900	     -4.14449722
     11.59333333	      1.02382509	    -10.91267965	    -10.01597705	      2.31480216	      0.91822195	      1.07307944	      4.93902066	     13.64249557	      3.44888025	     38.10529650	      0.66506289	     23.37303506	     24.16343590	    -13.49921645	     -2.65676249	    115.58975186	      2.01742175	     -3.96280866
     11.60000000	      0.99567133	    -10.08559124	     -9.28634782	      2.31542731	      0.92115086	      1.07216666	      2.64841458	     12.55268415	      3.59828986	     36.32099684	      0.63392098	     22.75443712	     26.29698985	    -12.25112058	     -1.77121162	    114.16721640	      1.99259382	     -3.44797984
     11.60666667	      0.98965041	     -9.17070830	     -8.58524711	      2.31646180	      0.92447545	      1.07157908	      0.26313010	     11.42019684	      3.72864727	     34.35987622	      0.59969297	     21.67813923	     28.14635370	    -10.95812176	     -1.12000201	    112.39703173	      1.96169827	     -2.80716930
     11.61333333	      1.07915807	     -8.20004997	     -7.98084956	      2.31797761	      0.92826787	      1.07138447	     -2.30930831	     10.25583819	      3.89107433	     32.20584920	      0.56209811	     20.08528775	     29.58514303	     -9.71320670	     -0.76127962	    110.29319563	      1.92497941	     -1.99258693
     11.62000000	      1.04638292	     -7.18107484	     -7.44886676	      2.31988961	      0.93219694	      1.07146072	     -4.77215734	      9.05755925	      3.88280458	     29.94586804	      0.52265399	     17.99963377	     30.93893005	     -8.54625819	     -0.60658321	    107.93944469	      1.88389870	     -1.11674215
     11.62666667	      1.14017180	     -6.11758217	     -7.07641448	      2.32209410	      0.93654797	      1.07191928	     -7.38264550	      7.81752312	      3.93218188	     27.58689771	      0.48148220	     15.44005201	     31.88779745	     -7.50621897	     -0.78173200	    105.28753557	      1.83761416	     -0.12256277
     11.63333333	      0.87289767	     -5.05447855	     -6.63516246	      2.32457027	      0.94059004	      1.07235850	     -9.55128322	      6.62506656	      3.57254163	     25.23651717	      0.44046032	     12.43093940	     33.12549583	     -6.48535853	     -0.91102146	    102.48173591	      1.78864371	      0.83689596
     11.64000000	      0.51501918	     -3.97253391	     -6.24003236	      2.32728476	      0.94462913	      1.07290455	    -11.55375882	      5.43166205	      3.01810211	     22.93421001	      0.40027748	      9.04762248	     34.28796578	     -5.54569248	     -1.20700876	     99.46647838	      1.73601754	      1.79216663
     11.64666667	      0.15317385	     -2.89392299	     -5.93510538	      2.33014502	      0.94874951	      1.07352941	    -13.46971261	      4.23654444	      2.32105642	     20.70570903	      0.36138280	      5.39362589	     35.27468129	     -4.73535756	     -1.70863574	     96.23675445	      1.67964823	      2.70992783
     11.65333333	     -0.40083551	     -1.84732383	     -5.62159115	      2.33310630	      0.95261103	      1.07409001	    -15.05111106	      3.12377630	      1.43190783	     18.67415728	      0.32592553	      1.59802122	     36.34465583	     -4.00118801	     -2.27559808	     92.83724521	      1.62031560	      3.53686527
     11.66000000	     -1.15163466	     -0.87069811	     -5.25150663	      2.33607025	      0.95615615	      1.07447542	    -16.25622877	      2.13365634	      0.28478566	     16.93413778	      0.29555646	     -2.21072652	     37.51774561	     -3.33367736	     -2.84125704	     89.28091243	      1.55824588	      4.28199922
     11.66666667	     -2.12521578	      0.06654400	     -4.88374340	      2.33900808	      0.95936475	      1.07465719	    -17.02811373	      1.22615110	     -0.91534868	     15.56657968	      0.27168807	     -5.82097495	     38.79570982	     -2.71642775	     -3.47459768	     85.52973663	      1.49277551	      4.86131719
     11.67333333	     -2.89501252	      0.91874952	     -4.47957060	      2.34183589	      0.96262691	      1.07459495	    -17.83424304	      0.41054930	     -2.20984320	     14.57855949	      0.25444386	     -9.20596842	     39.70754891	     -2.12664203	     -4.14274289	     81.57262944	      1.42371096	      5.40528755
     11.68000000	     -3.98312770	      1.68038871	     -4.10226084	      2.34456116	      0.96536473	      1.07427670	    -18.03913629	     -0.29387555	     -3.38381400	     14.15143163	      0.24698908	    -12.10194658	     40.82973291	     -1.63824435	     -4.87432880	     77.44038331	      1.35158966	      5.74270191
     11.68666667	     -4.99222267	      2.26939812	     -3.72178161	      2.34705554	      0.96792717	      1.07367173	    -18.10077391	     -0.84101830	     -4.53788057	     14.22442883	      0.24826312	    -14.59209163	     41.73163852	     -1.19600985	     -5.50680328	     73.13330842	      1.27641702	      6.06675001
     11.69333333	     -5.57455348	      2.98015065	     -3.21607720	      2.34940071	      0.97066712	      1.07256762	    -18.42391469	     -1.50309725	     -5.67798651	     14.80069598	      0.25832088	    -16.26594544	     42.01353590	     -0.40144354	     -6.10309522	     68.54194589	      1.19628263	      6.19166860
